PathFileType	4	(X/Y/Z)	..\data\2015032\dynamic\2015032_C5_01.trc
DataRate	CameraRate	NumFrames	NumMarkers	Units	OrigDataRate	OrigDataStartFrame	OrigNumFrames
100.000000	100.000000	4	48	mm	100.000000	20	165
Frame#	Time	L_IAS			L_IPS			R_IPS			R_IAS			L_FTC			L_FLE			L_FAX			L_TTC			L_FAL			L_FCC			L_FM1			L_FM2			L_FM5			R_FTC			R_FLE			R_FAX			R_TTC			R_FAL			R_FCC			R_FM1			R_FM2			R_FM5			CV7			TV10			SXS			SJN			L_SIA			L_SRS			L_SAA			L_SAE			L_HLE			L_HME			L_UOA			L_RSP			L_UHE			L_HM2			L_HM5			R_SIA			R_SRS			R_SAA			R_SAE			R_HLE			R_HME			R_UOA			R_RSP			R_UHE			R_HM2			R_HM5			
		X1	Y1	Z1	X2	Y2	Z2	X3	Y3	Z3	X4	Y4	Z4	X5	Y5	Z5	X6	Y6	Z6	X7	Y7	Z7	X8	Y8	Z8	X9	Y9	Z9	X10	Y10	Z10	X11	Y11	Z11	X12	Y12	Z12	X13	Y13	Z13	X14	Y14	Z14	X15	Y15	Z15	X16	Y16	Z16	X17	Y17	Z17	X18	Y18	Z18	X19	Y19	Z19	X20	Y20	Z20	X21	Y21	Z21	X22	Y22	Z22	X23	Y23	Z23	X24	Y24	Z24	X25	Y25	Z25	X26	Y26	Z26	X27	Y27	Z27	X28	Y28	Z28	X29	Y29	Z29	X30	Y30	Z30	X31	Y31	Z31	X32	Y32	Z32	X33	Y33	Z33	X34	Y34	Z34	X35	Y35	Z35	X36	Y36	Z36	X37	Y37	Z37	X38	Y38	Z38	X39	Y39	Z39	X40	Y40	Z40	X41	Y41	Z41	X42	Y42	Z42	X43	Y43	Z43	X44	Y44	Z44	X45	Y45	Z45	X46	Y46	Z46	X47	Y47	Z47	X48	Y48	Z48	

21	0.2	115.2556228637696	940.6239013671877	-356.6418457031251	-45.02928924560548	932.2313232421877	-306.2981262207032	-55.04675292968751	922.0377197265627	-199.4684295654297	97.10575103759768	915.4107666015627	-122.5003967285157	65.63865661621095	866.9571533203127	-419.5555419921876	147.9203643798828	444.3598937988282	-362.2300415039063	148.1273803710938	382.5673217773438	-360.2021789550782	201.1719818115235	383.7247924804688	-303.8223571777344	132.189682006836	60.18949127197267	-285.8159484863282	88.3754348754883	21.78383827209473	-235.434555053711	287.4785461425782	25.12268638610841	-234.7610778808594	278.1130371093751	31.93675422668458	-294.7919921875001	226.6667022705079	24.1349048614502	-331.6830139160157	-2.912541627883912	812.5864868164065	-94.81031799316408	12.55268383026123	419.8906250000001	-117.9153289794922	-22.95846176147461	384.8928527832032	-118.4777374267578	21.08648109436036	334.8162231445313	-162.6928863525391	-310.6635742187501	220.8306121826172	-178.0437774658203	-344.4340515136719	233.047592163086	-243.0993957519532	-283.0792236328126	58.85984802246095	-224.2301330566407	-289.3066101074219	65.84398651123048	-170.7239074707032	-332.7521667480469	99.71304321289065	-137.5322265625	-57.43600082397462	1413.361328125	-243.0103302001954	-107.4107208251953	1186.13720703125	-234.7357788085938	76.55637359619142	1162.662109375	-242.9064636230469	44.67794418334962	1326.452026367188	-241.8946838378907	-129.6383361816407	1209.561157226563	-342.8706359863282	-101.8459930419922	1334.956420898438	-341.2241821289063	-35.72222518920899	1348.372192382813	-430.271453857422	9.081413269042971	1347.867309570313	-441.700164794922	-78.10365295410158	1048.1201171875	-463.0960083007814	-112.2203063964844	1050.935791015625	-393.2401733398439	-119.031852722168	1030.585815429688	-436.584930419922	-67.77098083496095	795.1204833984377	-432.7767639160157	-113.5387573242188	819.7192993164065	-488.3026733398439	-90.53387451171876	710.2637329101564	-426.9089660644532	-158.4457702636719	757.4725952148439	-487.2412109375001	-122.8672790527344	1221.215454101563	-118.13818359375	-99.27504730224612	1339.696166992188	-139.6554718017578	-31.29272651672364	1350.23974609375	-50.37948226928712	13.3410758972168	1352.2490234375	-41.13835525512696	32.47738265991212	1039.255615234375	-0.1689667701721192	5.388174057006837	1026.839111328125	-69.65963745117189	5.978853225708009	1001.060302734375	-24.53533172607423	216.869613647461	879.8889770507815	-71.26162719726564	178.3364868164063	847.7974853515627	-16.49590301513672	279.7900390625001	814.3203125000002	-76.40237426757814	203.8916778564454	778.5881958007815	-19.96378707885743	
22	0.21	127.7467575073242	942.1301879882815	-356.9613037109376	-32.80155563354493	933.8020629882815	-307.4714660644532	-43.40657424926759	923.0571289062502	-200.7578277587891	108.300895690918	916.8703613281252	-122.8674087524414	78.10154724121095	868.5461425781252	-420.2324523925782	152.6813049316407	444.2726440429689	-362.6898498535157	151.9263916015625	382.4770812988282	-360.5918273925782	204.8979034423829	383.0414123535157	-304.0524597167969	132.3147125244141	60.28363418579103	-285.6095581054688	88.43128204345705	21.70588684082032	-235.4862060546876	287.4811706542969	25.00854682922364	-234.2107696533204	278.4728698730469	32.19710159301759	-294.2455444335938	226.8104400634766	24.39013481140137	-331.7088623046876	9.253502845764162	813.0949707031252	-96.52552795410159	39.11577224731446	420.7068481445314	-118.548583984375	4.048045158386231	386.172332763672	-118.8891677856446	47.8827247619629	336.1804199218751	-163.362060546875	-285.3997192382813	225.9875946044922	-177.1307373046875	-319.7014770507813	236.6827087402344	-242.4663391113282	-258.0222778320313	62.262020111084	-217.5084075927735	-264.5454406738282	70.92004394531251	-164.533432006836	-307.4823913574219	107.1933288574219	-132.6628570556641	-44.36035537719727	1414.908325195313	-243.3539123535157	-94.84957885742189	1187.8056640625	-235.9678802490235	88.90001678466798	1163.970336914063	-242.7094268798829	57.43541336059572	1327.876098632813	-241.6466217041016	-116.2955322265625	1211.570678710938	-344.4950561523438	-88.1896209716797	1336.927734375	-342.2587280273438	-21.06870079040528	1350.157104492188	-430.699432373047	23.83884620666504	1349.563720703125	-441.5633239746095	-60.92425537109376	1049.112915039063	-464.5225830078126	-96.3496017456055	1051.572387695313	-395.3690490722657	-102.4181213378907	1031.00537109375	-438.7340087890626	-47.51502990722657	796.151794433594	-433.1267089843751	-92.86402130126955	819.9302368164065	-489.3538208007814	-66.99684906005861	710.8609619140626	-428.4962158203126	-135.7634887695313	756.0737915039064	-489.2647399902345	-111.3611831665039	1222.837890625	-119.4834213256836	-87.23619842529298	1341.28515625	-140.5135040283203	-19.92954826354981	1351.488403320313	-50.71227264404298	24.68565177917481	1353.272705078125	-41.10467147827149	41.32025146484376	1039.96923828125	-1.059748888015747	14.02420330047608	1028.093139648438	-70.55818939208986	14.51280593872071	1002.159729003906	-25.51360321044923	223.0633087158204	877.4949951171877	-71.43408966064455	184.013427734375	846.2469482421877	-16.59697151184082	284.8573303222657	810.7434692382815	-76.45187377929689	208.2455596923829	776.5363769531252	-20.05988693237305	
23	0.22	139.9921569824219	943.5205078125002	-357.3281250000001	-20.76772499084473	935.3822021484377	-308.6018676757813	-31.88768959045411	924.242614746094	-201.9889831542969	119.4059295654297	918.5244140625002	-123.2424011230469	90.31809234619142	869.9670410156252	-420.8546752929689	156.8719329833985	444.1717834472657	-363.1998901367188	155.1495819091797	382.3684997558594	-361.0220642089844	208.1331024169922	382.3670043945313	-304.3901367187501	132.3134765625	60.31052780151369	-285.4364929199219	88.39990997314455	21.60347938537598	-235.533187866211	287.4258728027344	24.96289062500001	-233.8179931640626	278.7051086425782	32.41794586181641	-293.8266296386719	226.8594360351563	24.52584266662598	-331.7562866210938	21.36548805236817	813.9545898437502	-97.91294097900393	65.37757110595705	422.2352294921876	-119.4018020629883	30.78300094604493	388.0176696777345	-119.5087966918946	74.71191406250001	338.2049255371094	-164.2060699462891	-259.2857971191407	229.7605743408204	-176.2247619628907	-294.4245605468751	238.3720092773438	-241.6861419677735	-230.3579711914063	64.83971405029298	-210.7312927246094	-237.0344390869141	75.37186431884767	-158.2408905029297	-279.6780090332032	113.3683090209961	-127.5374755859375	-31.45220565795899	1416.510375976563	-243.6980590820313	-82.50746154785158	1189.544067382813	-237.2834930419922	101.0892105102539	1165.33642578125	-242.5330657958985	70.03430938720705	1329.341186523438	-241.374740600586	-103.0751037597657	1213.759521484375	-346.2973937988282	-74.63275146484376	1339.007568359375	-343.3439331054688	-6.443048954010012	1352.091918945313	-431.1189880371095	38.62935638427735	1351.387573242188	-441.3435668945314	-43.34310150146485	1050.168212890625	-465.9988403320314	-80.13095092773439	1052.199951171875	-397.6437988281251	-85.44464111328126	1031.441162109375	-440.9927062988282	-26.78978919982911	797.321228027344	-433.3165283203126	-71.47407531738283	820.2468261718752	-490.4415588378907	-42.90691375732423	711.6948242187501	-429.9436035156251	-112.2321853637696	754.8240356445314	-491.4774169921876	-100.0884704589844	1224.468505859375	-120.95703125	-75.43811035156251	1342.882934570313	-141.4422149658203	-8.857885360717775	1352.726928710938	-51.08799743652345	35.72283554077149	1354.30419921875	-41.08167266845704	49.99540328979494	1040.760620117188	-2.022839546203614	22.58427619934082	1029.41259765625	-71.57430267333986	22.96065902709961	1003.309020996094	-26.56975173950196	228.8955078125001	874.9116821289065	-71.48130798339845	189.3266143798828	844.6878051757815	-16.52709770202637	289.4848632812501	806.9537353515627	-76.2449188232422	212.1368255615235	774.4635009765627	-19.88223648071289	
24	0.23	152.0129089355469	944.7794189453127	-357.7623901367188	-8.89846706390381	936.9531250000002	-309.6629638671876	-20.44472312927246	925.5789184570315	-203.1280670166016	130.4959106445313	920.3391723632815	-123.6596374511719	102.2897720336914	871.2033691406252	-421.4248962402345	160.5651245117188	444.0678710937501	-363.7844543457032	157.8804626464844	382.2514343261719	-361.5138244628907	210.9532165527344	381.7084960937501	-304.8594665527344	132.2243041992188	60.28199005126955	-285.3035888671876	88.30931854248048	21.50335693359375	-235.5812377929688	287.3395996093751	24.93291854858399	-233.5744628906251	278.8392333984376	32.55498123168946	-293.5383911132813	226.8281555175782	24.52896690368653	-331.8457336425782	33.49596023559571	815.1520996093752	-98.9158630371094	91.26139068603517	424.4178161621095	-120.4472351074219	57.16390609741212	390.3677978515626	-120.302978515625	101.4885711669922	340.8233947753907	-165.1822967529297	-232.4182739257813	232.0143127441407	-175.2415313720703	-268.6517333984376	238.117172241211	-240.6547393798829	-200.3187866210938	66.51561737060548	-204.1131591796876	-207.006088256836	79.00817108154298	-152.0676422119141	-249.5950622558594	118.0129852294922	-122.3132247924805	-18.71867370605469	1418.136840820313	-244.0503997802735	-70.33943176269533	1191.30419921875	-238.6696929931641	113.1646499633789	1166.757446289063	-242.3860321044922	82.48416900634767	1330.834594726563	-241.0939178466797	-89.94365692138673	1216.072875976563	-348.2550354003907	-61.18271255493165	1341.144165039063	-344.4652404785157	8.115363121032717	1354.153930664063	-431.5248107910157	53.40905761718751	1353.331298828125	-441.0516052246095	-25.38750267028809	1051.291748046875	-467.5263977050782	-63.57623672485353	1052.819702148438	-400.0549621582032	-68.11217498779298	1031.8994140625	-443.3621826171876	-5.596111297607423	798.6509399414065	-433.3604431152345	-49.37841033935548	820.6929321289065	-491.5616149902345	-18.3523006439209	712.7976684570314	-431.1958312988282	-87.90074920654298	753.7965698242189	-493.8280029296876	-88.99649810791017	1226.06787109375	-122.5431442260742	-63.85647201538087	1344.450073242188	-142.4419097900391	1.945745825767518	1353.9423828125	-51.51939392089845	46.47208404541016	1355.341064453125	-41.0816764831543	58.48207092285158	1041.624877929688	-3.064210414886475	31.0710678100586	1030.792846679688	-72.72153472900392	31.31014251708985	1004.496826171875	-27.71566581726075	234.3844299316407	872.173278808594	-71.39112091064455	194.276596069336	843.1348266601565	-16.29314994812012	293.6867675781251	802.9885864257815	-75.76503753662111	215.5762023925782	772.3987426757815	-19.43703651428223	
